# xmcd
#
# Track frame offsets: 
#        150
#        19575
#        49227
#        73405
#        102870
#        119809
#        146133
#        163938
#        191632
#        221116
#        251791
#        279125
#        303883
#
# Disc length: 4392 seconds
#
# Revision: 0
# Processed by: cddbd v1.5.2PL0 Copyright (c) Steve Scherf et al.
# Submitted via: ExactAudioCopy v1.0b1
#
DISCID=cd11260d
DTITLE=Iwan Fals - Tentang Politik
DYEAR=2009
DGENRE=Pop
TTITLE0=Manusia Setengah Dewa
TTITLE1=Surat Buat Wakil Rakyat
TTITLE2=Politik Uang
TTITLE3=Sumbang
TTITLE4=Buktikan
TTITLE5=Negara
TTITLE6=Dan Orde Paling Baru
TTITLE7=Untukmu Negeri
TTITLE8=Rubah
TTITLE9=Belalang Tua
TTITLE10=Siang Seberang Istana
TTITLE11=Dendam Damai
TTITLE12=Sik Nggak Asik
EXTD=
EXTT0=
EXTT1=
EXTT2=
EXTT3=
EXTT4=
EXTT5=
EXTT6=
EXTT7=
EXTT8=
EXTT9=
EXTT10=
EXTT11=
EXTT12=
PLAYORDER=
